<svg width="216" height="92" viewBox="0 0 216 92" fill="none" xmlns="http://www.w3.org/2000/svg">
<rect width="216" height="92" rx="41" fill="black"/>
<rect x="6" y="6" width="204" height="69" rx="34.5" fill="#FF9247"/>
<path d="M78.3921 37.7422C78.3921 40.5781 77.648 42.875 76.1597 44.6328C74.5659 46.4961 72.3687 47.4277 69.5679 47.4277C69.0991 47.4277 68.3902 47.4043 67.4409 47.3574C66.5034 47.2988 65.8003 47.2695 65.3316 47.2695C64.8277 47.2695 64.5757 47.4863 64.5757 47.9199C64.5757 48.459 64.6284 49.2617 64.7339 50.3281C64.8394 51.3945 64.8921 52.1914 64.8921 52.7188C64.8921 52.9883 64.7691 53.123 64.523 53.123C63.8081 53.123 62.7359 53.0996 61.3062 53.0527C59.8765 53.0176 58.8042 53 58.0894 53C57.7495 53 57.5796 52.8301 57.5796 52.4902C57.5796 51.1895 57.5972 49.2383 57.6323 46.6367C57.6792 44.0234 57.7027 42.0664 57.7027 40.7656C57.7027 37.0859 57.5445 33.2188 57.228 29.1641L57.2105 28.918C57.187 28.6953 57.3628 28.5605 57.7378 28.5137C58.6519 28.3965 60.6675 28.3379 63.7847 28.3379C65.6245 28.3379 67.3882 28.3613 69.0757 28.4082C71.853 28.4902 74.0913 29.3633 75.7905 31.0273C77.5249 32.7383 78.3921 34.9766 78.3921 37.7422ZM71.3784 38.0234C71.3784 35.293 70.0484 33.9277 67.3882 33.9277C65.5132 33.9277 64.5288 34.0332 64.4351 34.2441C64.353 34.3965 64.312 35.75 64.312 38.3047C64.312 38.668 64.3237 39.207 64.3472 39.9219C64.3823 40.625 64.3999 41.1582 64.3999 41.5215C64.3999 41.7559 65.4546 41.873 67.564 41.873C70.107 41.873 71.3784 40.5898 71.3784 38.0234ZM101.652 53.2988C100.644 53.2988 99.3319 53.2754 97.7147 53.2285C95.6053 53.1816 94.2928 53.1523 93.7772 53.1406L88.5213 53.0703C87.994 53.082 87.2381 53.0586 86.2538 53C85.9139 52.9414 85.744 52.7598 85.744 52.4551C85.744 51.1777 85.7616 49.2676 85.7967 46.7246C85.8436 44.1699 85.867 42.2539 85.867 40.9766C85.867 39.6172 85.826 37.584 85.744 34.877C85.662 32.1582 85.6209 30.1191 85.6209 28.7598C85.6209 28.502 85.7967 28.373 86.1483 28.373C86.4998 28.373 87.0213 28.3906 87.7127 28.4258C88.4159 28.4609 88.9373 28.4785 89.2772 28.4785C89.6639 28.4785 90.2381 28.4609 90.9998 28.4258C91.7616 28.3789 92.3358 28.3555 92.7225 28.3555C92.8983 28.3555 92.9803 28.4668 92.9686 28.6895L92.951 28.918C92.8104 31.1211 92.6522 34.4316 92.4764 38.8496L92.4588 43.4902C92.4588 44.9902 92.4647 46.0859 92.4764 46.7773C92.4881 46.918 92.4998 47.0586 92.5116 47.1992C92.5233 47.3398 92.6112 47.4277 92.7752 47.4629C92.787 47.4629 92.9393 47.4629 93.2323 47.4629C94.287 47.4629 95.8631 47.4102 97.9608 47.3047C100.07 47.1875 101.652 47.1289 102.707 47.1289C103.023 47.1289 103.181 47.2637 103.181 47.5332C103.181 49.5371 103.035 51.2656 102.742 52.7188C102.683 53.0234 102.56 53.2051 102.373 53.2637C102.314 53.2871 102.074 53.2988 101.652 53.2988ZM133.051 52.5605C133.051 52.7715 132.904 52.918 132.611 53C132.26 53.0938 131.17 53.1406 129.342 53.1406C127.666 53.1406 126.588 53.0938 126.108 53C125.709 52.918 125.457 52.6543 125.352 52.209C124.953 50.5215 124.643 49.6191 124.42 49.502C124.233 49.4199 122.662 49.3789 119.709 49.3789C117.717 49.3789 116.656 49.4316 116.527 49.5371C116.328 49.7246 116.106 50.3516 115.86 51.418C115.637 52.3906 115.367 52.918 115.051 53C114.652 53.0938 113.317 53.1406 111.043 53.1406C109.25 53.1406 108.354 52.9707 108.354 52.6309C108.354 52.3262 109.678 48.582 112.326 41.3984C115.197 33.6289 116.756 29.3574 117.002 28.584C117.143 28.1387 117.307 27.916 117.494 27.916C117.811 27.916 118.297 27.9453 118.953 28.0039C119.621 28.0625 120.119 28.0918 120.447 28.0918C120.764 28.0918 121.227 28.0742 121.836 28.0391C122.457 27.9922 122.92 27.9688 123.225 27.9688C123.447 27.9688 123.652 28.1621 123.84 28.5488C124.414 29.7793 126.09 33.998 128.867 41.2051C131.656 48.459 133.051 52.2441 133.051 52.5605ZM120.588 36.5469C120.342 37.0625 119.926 38.1816 119.34 39.9043C118.707 41.7324 118.391 42.8047 118.391 43.1211C118.391 43.332 118.742 43.4492 119.445 43.4727C119.809 43.4961 120.406 43.5078 121.238 43.5078C122.012 43.5078 122.44 43.4141 122.522 43.2266C122.545 43.168 122.557 43.0859 122.557 42.9805C122.557 42.5938 122.287 41.5273 121.748 39.7812C121.221 38.0938 120.834 37.0156 120.588 36.5469ZM159.704 34.7188C159.704 35.2227 159.61 35.6621 159.422 36.0371C157.887 39.0723 155.795 42.2656 153.147 45.6172C152.772 46.1094 152.584 46.5547 152.584 46.9531C152.584 47.5742 152.62 48.5059 152.69 49.748C152.76 50.9902 152.795 51.916 152.795 52.5254C152.795 52.7363 152.749 52.8652 152.655 52.9121C152.631 52.9238 152.473 52.9531 152.18 53C151.758 53.0703 150.704 53.1055 149.016 53.1055C147.317 53.1055 146.233 53.0703 145.764 53C145.436 52.9531 145.272 52.7832 145.272 52.4902C145.272 51.8691 145.325 50.9258 145.43 49.6602C145.536 48.3828 145.588 47.4277 145.588 46.7949C145.588 46.4199 145.448 46.0156 145.166 45.582C143.749 43.5781 141.721 40.5078 139.084 36.3711C138.815 35.9141 138.68 35.5391 138.68 35.2461C138.68 34.543 138.645 33.4883 138.575 32.082C138.504 30.6758 138.469 29.6211 138.469 28.918C138.469 28.5312 138.586 28.3379 138.821 28.3379C139.536 28.3379 140.62 28.3672 142.073 28.4258C143.526 28.4844 144.616 28.5137 145.342 28.5137C145.612 28.5137 145.747 28.6016 145.747 28.7773C145.747 29.375 145.717 30.2773 145.659 31.4844C145.612 32.6797 145.588 33.5762 145.588 34.1738C145.588 34.5254 146.104 35.4043 147.135 36.8105C147.956 37.9121 148.629 38.7617 149.157 39.3594C149.637 38.7969 150.276 37.9531 151.073 36.8281C152.081 35.4219 152.584 34.5723 152.584 34.2793C152.584 33.6934 152.538 32.8086 152.444 31.625C152.362 30.4297 152.321 29.5391 152.321 28.9531C152.321 28.707 152.374 28.5664 152.479 28.5312C152.479 28.5312 152.625 28.5312 152.918 28.5312C153.622 28.5312 154.676 28.502 156.083 28.4434C157.5 28.373 158.567 28.3379 159.282 28.3379C159.516 28.3379 159.633 28.5898 159.633 29.0938C159.633 29.7148 159.645 30.6523 159.668 31.9062C159.692 33.1484 159.704 34.0859 159.704 34.7188Z" fill="black"/>
</svg>
