<svg width="216" height="92" viewBox="0 0 216 92" fill="none" xmlns="http://www.w3.org/2000/svg">
<rect width="216" height="92" rx="41" fill="black"/>
<rect x="6" y="6" width="204" height="69" rx="34.5" fill="#FF9247"/>
<path d="M52.515 43.4551C52.515 46.3848 52.2748 48.6523 51.7943 50.2578C50.9271 53.1055 49.5326 55.3379 47.6107 56.9551C47.388 57.1543 47.2064 57.2539 47.0658 57.2539C46.9369 57.2539 46.808 57.1777 46.6791 57.0254C46.2689 56.5449 45.6302 55.8242 44.763 54.8633C44.2591 54.4414 43.515 53.7852 42.5306 52.8945C42.4017 52.7539 42.3373 52.6367 42.3373 52.543C42.3373 52.4375 42.4017 52.3262 42.5306 52.209C43.3978 51.4473 43.9486 50.9258 44.183 50.6445C44.64 50.0938 44.9916 49.4023 45.2377 48.5703C45.5658 47.4336 45.7298 45.5645 45.7298 42.9629C45.7298 36.9395 45.5189 32.2695 45.097 28.9531C45.0736 28.8359 45.0619 28.748 45.0619 28.6895C45.0619 28.4785 45.2494 28.373 45.6244 28.373C45.9994 28.373 46.5502 28.3906 47.2767 28.4258C48.015 28.4609 48.5716 28.4785 48.9466 28.4785C49.2982 28.4785 49.8197 28.4609 50.5111 28.4258C51.2025 28.3906 51.724 28.373 52.0755 28.373C52.4154 28.373 52.5853 28.5254 52.5853 28.8301C52.5853 30.4473 52.5736 32.8848 52.5502 36.1426C52.5267 39.3887 52.515 41.8262 52.515 43.4551ZM85.1266 40.6953C85.1266 44.3516 83.9606 47.416 81.6286 49.8887C79.2497 52.3965 76.238 53.6504 72.5934 53.6504C68.9723 53.6504 65.9665 52.3848 63.5759 49.8535C61.2321 47.3809 60.0602 44.3281 60.0602 40.6953C60.0602 37.0508 61.2321 33.9863 63.5759 31.502C65.9665 28.959 68.9723 27.6875 72.5934 27.6875C76.1911 27.6875 79.1911 28.959 81.5934 31.502C83.9489 34.0098 85.1266 37.0742 85.1266 40.6953ZM78.4645 40.6602C78.4645 38.9023 77.9313 37.4082 76.8649 36.1777C75.7516 34.8887 74.3278 34.2441 72.5934 34.2441C70.9411 34.2441 69.5407 34.9121 68.3923 36.248C67.279 37.5371 66.7223 39.0195 66.7223 40.6953C66.7223 42.4883 67.2438 43.9824 68.2868 45.1777C69.3884 46.4316 70.8239 47.0586 72.5934 47.0586C74.2458 47.0586 75.652 46.3965 76.8122 45.0723C77.9137 43.8066 78.4645 42.3359 78.4645 40.6602ZM115.559 52.4375C115.582 52.7539 115.418 52.9121 115.066 52.9121C114.844 52.9121 114.199 52.7832 113.133 52.5254C112.078 52.2676 111.428 52.0918 111.182 51.998C108.732 52.959 106.383 53.4395 104.133 53.4395C100.512 53.4395 97.541 52.2324 95.2207 49.8184C92.9238 47.4395 91.7754 44.4336 91.7754 40.8008C91.7754 37.0859 92.8887 34.0039 95.1152 31.5547C97.4121 29.0234 100.395 27.7578 104.062 27.7578C105.844 27.7578 107.52 28.0977 109.09 28.7773C110.789 29.5273 112.125 30.582 113.098 31.9414C113.297 32.2227 113.396 32.4219 113.396 32.5391C113.396 32.9141 112.869 33.7578 111.814 35.0703C110.771 36.3711 110.098 37.0215 109.793 37.0215C109.723 37.0215 109.453 36.7812 108.984 36.3008C108.41 35.7266 107.824 35.2812 107.227 34.9648C106.336 34.4844 105.352 34.2441 104.273 34.2441C102.516 34.2441 101.121 34.9004 100.09 36.2129C99.1289 37.4199 98.6484 38.9258 98.6484 40.7305C98.6484 42.6406 99.1465 44.1523 100.143 45.2656C101.174 46.4141 102.633 46.9883 104.52 46.9883C105.715 46.9883 107.051 46.6895 108.527 46.0918C108.492 45.7051 108.387 44.7207 108.211 43.1387C108.059 41.9199 107.982 40.9355 107.982 40.1855C107.982 39.9629 108.059 39.8281 108.211 39.7812C108.27 39.7578 108.363 39.7461 108.492 39.7461C108.832 39.7461 109.342 39.7812 110.021 39.8516C110.713 39.9102 111.234 39.9395 111.586 39.9395C111.961 39.9395 112.523 39.916 113.273 39.8691C114.023 39.8105 114.586 39.7812 114.961 39.7812C115.254 39.7812 115.4 39.9746 115.4 40.3613C115.4 40.9238 115.365 41.7734 115.295 42.9102C115.236 44.0469 115.207 44.8965 115.207 45.459C115.207 46.9707 115.318 49.2324 115.541 52.2441L115.559 52.4375ZM145.885 52.5605C145.885 52.7715 145.739 52.918 145.446 53C145.094 53.0938 144.004 53.1406 142.176 53.1406C140.5 53.1406 139.422 53.0938 138.942 53C138.543 52.918 138.291 52.6543 138.186 52.209C137.787 50.5215 137.477 49.6191 137.254 49.502C137.067 49.4199 135.496 49.3789 132.543 49.3789C130.551 49.3789 129.491 49.4316 129.362 49.5371C129.162 49.7246 128.94 50.3516 128.694 51.418C128.471 52.3906 128.201 52.918 127.885 53C127.487 53.0938 126.151 53.1406 123.877 53.1406C122.084 53.1406 121.188 52.9707 121.188 52.6309C121.188 52.3262 122.512 48.582 125.16 41.3984C128.032 33.6289 129.59 29.3574 129.836 28.584C129.977 28.1387 130.141 27.916 130.328 27.916C130.645 27.916 131.131 27.9453 131.787 28.0039C132.455 28.0625 132.953 28.0918 133.282 28.0918C133.598 28.0918 134.061 28.0742 134.67 28.0391C135.291 27.9922 135.754 27.9688 136.059 27.9688C136.282 27.9688 136.487 28.1621 136.674 28.5488C137.248 29.7793 138.924 33.998 141.701 41.2051C144.491 48.459 145.885 52.2441 145.885 52.5605ZM133.422 36.5469C133.176 37.0625 132.76 38.1816 132.174 39.9043C131.541 41.7324 131.225 42.8047 131.225 43.1211C131.225 43.332 131.576 43.4492 132.28 43.4727C132.643 43.4961 133.241 43.5078 134.073 43.5078C134.846 43.5078 135.274 43.4141 135.356 43.2266C135.379 43.168 135.391 43.0859 135.391 42.9805C135.391 42.5938 135.121 41.5273 134.582 39.7812C134.055 38.0938 133.668 37.0156 133.422 36.5469ZM173.329 52.8242C173.329 52.9062 173.212 52.9648 172.977 53C172.532 53.0703 171.413 53.1055 169.62 53.1055C168.085 53.1055 167.042 53.0703 166.491 53C166.233 52.9648 166.087 52.9355 166.051 52.9121C165.981 52.877 165.899 52.7598 165.805 52.5605C165.63 52.1035 165.372 51.4238 165.032 50.5215C164.575 49.3496 163.86 47.6211 162.887 45.3359C162.676 44.8789 162.19 44.627 161.428 44.5801C161.78 44.6035 161.176 44.6152 159.618 44.6152C159.442 44.6152 159.354 44.9141 159.354 45.5117C159.354 46.3086 159.424 47.498 159.565 49.0801C159.717 50.6621 159.794 51.8516 159.794 52.6484C159.794 52.8477 159.741 52.9648 159.635 53C159.471 53.0117 159.307 53.0234 159.143 53.0352C158.452 53.082 157.374 53.1055 155.909 53.1055C154.233 53.1055 153.225 53.0703 152.885 53C152.546 52.9297 152.376 52.748 152.376 52.4551C152.376 51.166 152.434 49.2207 152.551 46.6191C152.68 44.0176 152.745 42.0664 152.745 40.7656C152.745 35.8086 152.633 31.9414 152.411 29.1641L152.393 28.918C152.381 28.7188 152.563 28.584 152.938 28.5137C153.325 28.4434 155.118 28.373 158.317 28.3027C160.485 28.2559 162.214 28.2324 163.503 28.2324C166.174 28.2324 168.354 28.8359 170.042 30.043C171.952 31.4023 172.907 33.3652 172.907 35.9316C172.907 37.6426 172.661 39.0078 172.169 40.0273C171.676 41.0469 170.768 42.0371 169.444 42.998C169.174 43.1855 169.04 43.3613 169.04 43.5254C169.04 43.5137 169.755 44.9844 171.184 47.9375C172.614 50.8906 173.329 52.5195 173.329 52.8242ZM165.946 37.0566C165.946 35.627 165.477 34.6367 164.54 34.0859C163.813 33.6641 162.676 33.4531 161.13 33.4531C160.016 33.4531 159.424 33.623 159.354 33.9629C159.284 34.3613 159.249 35.5098 159.249 37.4082C159.249 37.6777 159.255 38.0762 159.266 38.6035C159.278 39.1309 159.284 39.5234 159.284 39.7812C159.284 39.8398 159.471 39.8984 159.846 39.957C160.561 40.0625 161.311 40.1152 162.096 40.1152C164.663 40.1152 165.946 39.0957 165.946 37.0566Z" fill="black"/>
</svg>
