<svg width="216" height="92" viewBox="0 0 216 92" fill="none" xmlns="http://www.w3.org/2000/svg">
<rect width="216" height="92" rx="41" fill="black"/>
<rect x="6" y="6" width="204" height="69" rx="34.5" fill="#FF9247"/>
<path d="M86.3902 40.6953C86.3902 43.8125 85.5405 46.4961 83.8413 48.7461C82.107 51.0547 79.7398 52.5312 76.7398 53.1758C77.3257 54.3711 78.1987 55.4668 79.3589 56.4629C79.4644 56.5449 79.5171 56.6211 79.5171 56.6914C79.5171 57.1602 78.0757 57.3945 75.1929 57.3945C73.0718 57.3945 71.7652 57.3125 71.273 57.1484C71.0034 57.0547 70.8335 56.8379 70.7632 56.498C70.6226 55.8184 70.5757 54.6875 70.6226 53.1055C67.7515 52.3906 65.4722 50.8789 63.7847 48.5703C62.1441 46.332 61.3237 43.707 61.3237 40.6953C61.3237 37.0508 62.4956 33.9863 64.8394 31.502C67.23 28.959 70.2359 27.6875 73.857 27.6875C77.4546 27.6875 80.4546 28.9648 82.857 31.5195C85.2124 34.0156 86.3902 37.0742 86.3902 40.6953ZM79.728 40.6602C79.728 38.8555 79.2066 37.3496 78.1636 36.1426C77.062 34.877 75.6265 34.2441 73.857 34.2441C72.0288 34.2441 70.5816 34.8711 69.5152 36.125C68.4956 37.3086 67.9859 38.832 67.9859 40.6953C67.9859 42.5938 68.4839 44.1172 69.48 45.2656C70.523 46.4844 71.982 47.0938 73.857 47.0938C75.6734 47.0938 77.1206 46.4668 78.1987 45.2129C79.2183 44.0176 79.728 42.5 79.728 40.6602ZM114.678 44.3691C114.678 47.3574 114.32 49.3965 113.605 50.4863C112.293 52.4785 109.017 53.4746 103.779 53.4746C101.412 53.4746 99.5897 53.293 98.3123 52.9297C96.2733 52.3438 94.9491 51.2246 94.3397 49.5723C94.035 48.7637 93.8827 47.3223 93.8827 45.248C93.8827 44.7676 93.9002 44.0527 93.9354 43.1035C93.9706 42.1543 93.9881 41.4453 93.9881 40.9766C93.9881 39.6172 93.9237 37.5781 93.7948 34.8594C93.6659 32.1406 93.6014 30.1074 93.6014 28.7598C93.6014 28.4785 93.7245 28.3379 93.9706 28.3379C94.6854 28.3379 95.7635 28.3672 97.2049 28.4258C98.6581 28.4844 99.742 28.5137 100.457 28.5137C100.75 28.5137 100.896 28.6426 100.896 28.9004C100.896 30.4473 100.844 32.7676 100.738 35.8613C100.644 38.9434 100.598 41.2578 100.598 42.8047C100.598 44.6445 100.791 45.8867 101.178 46.5312C101.693 47.4102 102.771 47.8496 104.412 47.8496C106.814 47.8496 108.015 46.6836 108.015 44.3516C108.015 42.6523 107.974 40.1035 107.892 36.7051C107.81 33.3066 107.769 30.7578 107.769 29.0586C107.769 28.6953 107.916 28.5137 108.209 28.5137C108.9 28.5137 109.943 28.4844 111.338 28.4258C112.732 28.3672 113.775 28.3379 114.467 28.3379C114.806 28.3379 114.976 28.4785 114.976 28.7598C114.976 30.1074 114.918 32.1406 114.801 34.8594C114.695 37.5781 114.642 39.6172 114.642 40.9766C114.642 41.3516 114.648 41.9199 114.66 42.6816C114.672 43.4316 114.678 43.9941 114.678 44.3691ZM129.975 40.0098C129.975 41.3926 130.01 43.4727 130.08 46.25C130.151 49.0273 130.186 51.1074 130.186 52.4902C130.186 52.7246 130.133 52.8711 130.027 52.9297C130.004 52.9414 129.852 52.9648 129.57 53C128.809 53.0938 127.789 53.1406 126.512 53.1406C124.801 53.1406 123.711 53.0938 123.242 53C122.902 52.9297 122.733 52.748 122.733 52.4551C122.733 52.6426 122.785 51.6113 122.891 49.3613C123.102 44.6152 123.207 41.498 123.207 40.0098C123.207 38.7559 123.166 36.875 123.084 34.3672C123.002 31.8594 122.961 29.9785 122.961 28.7246C122.961 28.4668 123.096 28.3379 123.365 28.3379C123.729 28.3379 124.274 28.3555 125 28.3906C125.738 28.4258 126.289 28.4434 126.652 28.4434C127.016 28.4434 127.549 28.4258 128.252 28.3906C128.967 28.3555 129.506 28.3379 129.869 28.3379C130.209 28.3379 130.379 28.4668 130.379 28.7246C130.379 29.9785 130.309 31.8594 130.168 34.3672C130.039 36.875 129.975 38.7559 129.975 40.0098ZM155.362 33.7168C155.362 33.9512 155.233 34.0684 154.975 34.0684C154.53 34.0684 152.766 33.9805 149.684 33.8047C149.614 36.7695 149.579 38.8379 149.579 40.0098C149.579 41.3926 149.631 43.4727 149.737 46.25C149.854 49.0273 149.913 51.1074 149.913 52.4902C149.913 52.7129 149.86 52.8535 149.754 52.9121C149.719 52.9355 149.555 52.9648 149.262 53C148.559 53.0938 147.528 53.1406 146.168 53.1406C144.657 53.1406 143.596 53.0938 142.987 53C142.659 52.9414 142.495 52.7598 142.495 52.4551C142.495 51.0723 142.553 48.998 142.67 46.2324C142.788 43.4668 142.846 41.3926 142.846 40.0098C142.846 39.0957 142.799 37.0566 142.706 33.8926C140.362 34.127 138.493 34.2441 137.098 34.2441C136.911 34.2441 136.817 34.1855 136.817 34.0684C136.817 33.916 136.899 33.4648 137.063 32.7148C137.25 31.8945 137.356 31.3965 137.379 31.2207C137.415 30.6699 137.456 30.1191 137.502 29.5684C137.584 28.6895 137.725 28.25 137.924 28.25C137.948 28.25 138.03 28.2559 138.17 28.2676C140.069 28.5137 142.875 28.6367 146.59 28.6367C147.645 28.6367 149.59 28.5254 152.426 28.3027C153.95 28.1855 154.717 28.127 154.729 28.127C154.963 28.127 155.098 28.1445 155.133 28.1797C155.168 28.2031 155.192 28.3145 155.204 28.5137C155.204 28.8301 155.192 29.2695 155.168 29.832C155.145 30.4531 155.133 30.8926 155.133 31.1504C155.133 31.4434 155.168 31.877 155.239 32.4512C155.321 33.0137 155.362 33.4355 155.362 33.7168Z" fill="black"/>
</svg>
