<svg width="216" height="92" viewBox="0 0 216 92" fill="none" xmlns="http://www.w3.org/2000/svg">
<path d="M175 0H41C18.3563 0 0 18.3563 0 41V51C0 73.6437 18.3563 92 41 92H175C197.644 92 216 73.6437 216 51V41C216 18.3563 197.644 0 175 0Z" fill="black"/>
<path d="M175.5 6H40.5C21.4462 6 6 21.4462 6 40.5C6 59.5538 21.4462 75 40.5 75H175.5C194.554 75 210 59.5538 210 40.5C210 21.4462 194.554 6 175.5 6Z" fill="#FF9247"/>
<path d="M43.553 52.8242C43.553 52.9062 43.4358 52.9648 43.2014 53C42.7561 53.0703 41.637 53.1055 39.844 53.1055C38.3088 53.1055 37.2659 53.0703 36.7151 53C36.4573 52.9648 36.3108 52.9355 36.2756 52.9121C36.2053 52.877 36.1233 52.7598 36.0295 52.5605C35.8538 52.1035 35.5959 51.4238 35.2561 50.5215C34.7991 49.3496 34.0842 47.6211 33.1116 45.3359C32.9006 44.8789 32.4143 44.627 31.6526 44.5801C32.0041 44.6035 31.4006 44.6152 29.842 44.6152C29.6663 44.6152 29.5784 44.9141 29.5784 45.5117C29.5784 46.3086 29.6487 47.498 29.7893 49.0801C29.9416 50.6621 30.0178 51.8516 30.0178 52.6484C30.0178 52.8477 29.9651 52.9648 29.8596 53C29.6955 53.0117 29.5315 53.0234 29.3674 53.0352C28.676 53.082 27.5979 53.1055 26.133 53.1055C24.4573 53.1055 23.4495 53.0703 23.1096 53C22.7698 52.9297 22.5998 52.748 22.5998 52.4551C22.5998 51.166 22.6584 49.2207 22.7756 46.6191C22.9045 44.0176 22.969 42.0664 22.969 40.7656C22.969 35.8086 22.8577 31.9414 22.635 29.1641L22.6174 28.918C22.6057 28.7188 22.7873 28.584 23.1623 28.5137C23.5491 28.4434 25.342 28.373 28.5413 28.3027C30.7092 28.2559 32.4377 28.2324 33.7268 28.2324C36.3987 28.2324 38.5784 28.8359 40.2659 30.043C42.176 31.4023 43.1311 33.3652 43.1311 35.9316C43.1311 37.6426 42.885 39.0078 42.3928 40.0273C41.9006 41.0469 40.9924 42.0371 39.6682 42.998C39.3987 43.1855 39.2639 43.3613 39.2639 43.5254C39.2639 43.5137 39.9788 44.9844 41.4084 47.9375C42.8381 50.8906 43.553 52.5195 43.553 52.8242ZM36.1702 37.0566C36.1702 35.627 35.7014 34.6367 34.7639 34.0859C34.0373 33.6641 32.9006 33.4531 31.3538 33.4531C30.2405 33.4531 29.6487 33.623 29.5784 33.9629C29.508 34.3613 29.4729 35.5098 29.4729 37.4082C29.4729 37.6777 29.4788 38.0762 29.4905 38.6035C29.5022 39.1309 29.508 39.5234 29.508 39.7812C29.508 39.8398 29.6955 39.8984 30.0705 39.957C30.7854 40.0625 31.5354 40.1152 32.3205 40.1152C34.887 40.1152 36.1702 39.0957 36.1702 37.0566ZM67.6969 47.5332C67.6969 48.0371 67.5973 48.9629 67.398 50.3105C67.1871 51.7754 66.9996 52.6484 66.8355 52.9297C66.6949 53.1523 66.5016 53.2637 66.2555 53.2637C66.15 53.2637 65.9742 53.2461 65.7281 53.2109C64.8727 53.0938 62.3766 53.0352 58.2398 53.0352C57.3375 53.0352 55.9957 53.0293 54.2145 53.0176C52.4332 53.0059 51.0973 53 50.2066 53C49.8199 53 49.6266 52.8301 49.6266 52.4902C49.6266 51.1777 49.6969 49.209 49.8375 46.584C49.9898 43.9473 50.066 41.9727 50.066 40.6602C50.066 39.3242 49.9957 36.834 49.8551 33.1895C49.8199 32.252 49.7555 30.8516 49.6617 28.9883L49.6441 28.7422C49.6207 28.4727 49.7672 28.3379 50.0836 28.3379C50.9508 28.3379 52.2516 28.3613 53.9859 28.4082C55.732 28.4551 57.0387 28.4785 57.9059 28.4785C58.7613 28.4785 60.0504 28.4551 61.773 28.4082C63.4957 28.3613 64.7848 28.3379 65.6402 28.3379C66.2496 28.3379 66.6012 28.5664 66.6949 29.0234C66.7535 29.293 66.8414 30.1133 66.9586 31.4844C67.0875 32.8438 67.152 33.6699 67.152 33.9629C67.152 34.209 67.0348 34.332 66.8004 34.332C66.7301 34.332 66.607 34.3262 66.4313 34.3145C63.3141 34.0566 60.5133 33.9277 58.0289 33.9277C57.4078 33.9277 57.027 34.0742 56.8863 34.3672C56.8277 34.5078 56.7984 34.959 56.7984 35.7207C56.7984 36.5176 56.9156 37.0449 57.15 37.3027C57.3492 37.5254 57.7301 37.6367 58.2926 37.6367C58.4098 37.6367 58.6383 37.6309 58.9781 37.6191C59.318 37.5957 59.5992 37.584 59.8219 37.584C61.2984 37.584 62.7926 37.543 64.3043 37.4609C64.4332 37.4492 64.7555 37.4199 65.2711 37.373C65.6695 37.3262 65.9859 37.3027 66.2203 37.3027C66.5016 37.3027 66.6422 37.4375 66.6422 37.707C66.6422 37.4609 66.5367 38.3574 66.3258 40.3965C66.232 41.334 66.1852 42.2715 66.1852 43.209C66.1852 43.4434 66.0152 43.5605 65.6754 43.5605C65.6754 43.5605 65.148 43.502 64.0934 43.3848C63.4254 43.3145 61.902 43.2793 59.523 43.2793H57.6598C57.1793 43.2793 56.898 43.3965 56.816 43.6309C56.8043 43.6895 56.7984 44.0527 56.7984 44.7207C56.7984 45.6113 56.857 46.1855 56.9742 46.4434C57.1734 46.8887 57.9234 47.1523 59.2242 47.2344C59.2008 47.2344 60.0563 47.2344 61.7906 47.2344C62.4117 47.2344 63.3316 47.1816 64.5504 47.0762C65.7809 46.959 66.7008 46.9004 67.3102 46.9004C67.568 46.9004 67.6969 47.1113 67.6969 47.5332ZM81.3291 40.0098C81.3291 41.3926 81.3642 43.4727 81.4345 46.25C81.5048 49.0273 81.54 51.1074 81.54 52.4902C81.54 52.7246 81.4873 52.8711 81.3818 52.9297C81.3584 52.9414 81.206 52.9648 80.9248 53C80.163 53.0938 79.1435 53.1406 77.8662 53.1406C76.1552 53.1406 75.0654 53.0938 74.5966 53C74.2568 52.9297 74.0869 52.748 74.0869 52.4551C74.0869 52.6426 74.1396 51.6113 74.2451 49.3613C74.456 44.6152 74.5615 41.498 74.5615 40.0098C74.5615 38.7559 74.5205 36.875 74.4384 34.3672C74.3564 31.8594 74.3154 29.9785 74.3154 28.7246C74.3154 28.4668 74.4502 28.3379 74.7197 28.3379C75.083 28.3379 75.6279 28.3555 76.3545 28.3906C77.0927 28.4258 77.6435 28.4434 78.0068 28.4434C78.3701 28.4434 78.9033 28.4258 79.6064 28.3906C80.3213 28.3555 80.8603 28.3379 81.2236 28.3379C81.5634 28.3379 81.7334 28.4668 81.7334 28.7246C81.7334 29.9785 81.663 31.8594 81.5224 34.3672C81.3935 36.875 81.3291 38.7559 81.3291 40.0098ZM112.575 28.8828C112.575 30.2188 112.516 32.2285 112.399 34.9121C112.293 37.584 112.241 39.5938 112.241 40.9414V52.5254C112.241 52.8418 112.071 53 111.731 53C111.45 53 111.022 53.0117 110.448 53.0352C109.885 53.0586 109.463 53.0703 109.182 53.0703C108.877 53.0703 108.42 53.0469 107.811 53C107.201 52.9531 106.744 52.9297 106.44 52.9297C106.229 52.9297 105.977 52.7363 105.684 52.3496C104.84 51.2129 102.942 48.6934 99.9886 44.791C99.18 43.7012 97.9495 42.0957 96.2972 39.9746C96.2503 39.9043 96.1624 39.834 96.0335 39.7637C95.9398 39.8457 95.8929 39.9746 95.8929 40.1504C95.8929 41.5098 95.928 43.5488 95.9984 46.2676C96.0804 48.9863 96.1214 51.0254 96.1214 52.3848C96.1214 52.7949 95.9632 53 95.6468 53H89.5648C89.2249 53 89.055 52.8184 89.055 52.4551C89.055 51.1895 89.1136 49.2793 89.2308 46.7246C89.3597 44.1699 89.4241 42.2539 89.4241 40.9766C89.4241 39.6289 89.3655 37.6133 89.2484 34.9297C89.1429 32.2461 89.0902 30.2363 89.0902 28.9004C89.0902 28.6426 89.3187 28.5137 89.7757 28.5137C90.4554 28.5137 91.2933 28.4668 92.2894 28.373C92.5238 28.3496 92.9866 28.2734 93.678 28.1445C94.264 28.0391 94.7269 27.9863 95.0667 27.9863C95.2073 27.9863 95.4241 28.1855 95.7171 28.584L102.274 37.5664C102.86 38.375 103.744 39.5586 104.928 41.1172C105.221 41.4805 105.473 41.6621 105.684 41.6621C105.836 41.6621 105.912 41.2051 105.912 40.291C105.912 39.0605 105.842 37.209 105.701 34.7363C105.573 32.2637 105.508 30.4062 105.508 29.1641C105.508 28.7305 105.631 28.5137 105.877 28.5137C106.58 28.5137 107.641 28.4844 109.059 28.4258C110.477 28.3672 111.537 28.3379 112.241 28.3379C112.463 28.3379 112.575 28.5195 112.575 28.8828ZM127.121 40.0098C127.121 41.3926 127.156 43.4727 127.226 46.25C127.297 49.0273 127.332 51.1074 127.332 52.4902C127.332 52.7246 127.279 52.8711 127.174 52.9297C127.15 52.9414 126.998 52.9648 126.716 53C125.955 53.0938 124.935 53.1406 123.658 53.1406C121.947 53.1406 120.857 53.0938 120.388 53C120.049 52.9297 119.879 52.748 119.879 52.4551C119.879 52.6426 119.931 51.6113 120.037 49.3613C120.248 44.6152 120.353 41.498 120.353 40.0098C120.353 38.7559 120.312 36.875 120.23 34.3672C120.148 31.8594 120.107 29.9785 120.107 28.7246C120.107 28.4668 120.242 28.3379 120.511 28.3379C120.875 28.3379 121.42 28.3555 122.146 28.3906C122.884 28.4258 123.435 28.4434 123.799 28.4434C124.162 28.4434 124.695 28.4258 125.398 28.3906C126.113 28.3555 126.652 28.3379 127.015 28.3379C127.355 28.3379 127.525 28.4668 127.525 28.7246C127.525 29.9785 127.455 31.8594 127.314 34.3672C127.185 36.875 127.121 38.7559 127.121 40.0098ZM155.378 49.0273C155.378 49.2148 155.255 49.4609 155.009 49.7656C152.853 52.332 149.987 53.6152 146.413 53.6152C142.757 53.6152 139.792 52.3672 137.519 49.8711C135.304 47.457 134.196 44.4102 134.196 40.7305C134.196 37.168 135.28 34.1445 137.448 31.6602C139.71 29.0586 142.587 27.7578 146.079 27.7578C149.876 27.7578 152.853 28.9238 155.009 31.2559C155.243 31.5137 155.36 31.7422 155.36 31.9414C155.36 32.1641 154.95 32.9902 154.13 34.4199C153.321 35.8496 152.812 36.6523 152.601 36.8281C152.507 36.9219 152.39 36.9688 152.249 36.9688C152.19 36.9688 151.897 36.7344 151.37 36.2656C150.737 35.7031 150.116 35.2637 149.507 34.9473C148.581 34.4785 147.62 34.2441 146.624 34.2441C144.901 34.2441 143.524 34.8887 142.493 36.1777C141.544 37.373 141.069 38.8496 141.069 40.6074C141.069 42.3887 141.544 43.8828 142.493 45.0898C143.524 46.4023 144.901 47.0586 146.624 47.0586C147.644 47.0586 148.61 46.8359 149.524 46.3906C150.122 46.0977 150.731 45.6875 151.353 45.1602C151.868 44.7148 152.155 44.4922 152.214 44.4922C152.331 44.4922 152.448 44.5566 152.565 44.6855C152.753 44.8965 153.263 45.6289 154.095 46.8828C154.95 48.1836 155.378 48.8984 155.378 49.0273ZM168.553 40.0098C168.553 41.3926 168.588 43.4727 168.659 46.25C168.729 49.0273 168.764 51.1074 168.764 52.4902C168.764 52.7246 168.711 52.8711 168.606 52.9297C168.582 52.9414 168.43 52.9648 168.149 53C167.387 53.0938 166.368 53.1406 165.09 53.1406C163.379 53.1406 162.289 53.0938 161.821 53C161.481 52.9297 161.311 52.748 161.311 52.4551C161.311 52.6426 161.364 51.6113 161.469 49.3613C161.68 44.6152 161.786 41.498 161.786 40.0098C161.786 38.7559 161.745 36.875 161.663 34.3672C161.58 31.8594 161.539 29.9785 161.539 28.7246C161.539 28.4668 161.674 28.3379 161.944 28.3379C162.307 28.3379 162.852 28.3555 163.579 28.3906C164.317 28.4258 164.868 28.4434 165.231 28.4434C165.594 28.4434 166.127 28.4258 166.83 28.3906C167.545 28.3555 168.084 28.3379 168.448 28.3379C168.788 28.3379 168.957 28.4668 168.957 28.7246C168.957 29.9785 168.887 31.8594 168.746 34.3672C168.618 36.875 168.553 38.7559 168.553 40.0098ZM194.279 47.5332C194.279 48.0371 194.179 48.9629 193.98 50.3105C193.769 51.7754 193.582 52.6484 193.418 52.9297C193.277 53.1523 193.084 53.2637 192.838 53.2637C192.732 53.2637 192.556 53.2461 192.31 53.2109C191.455 53.0938 188.959 53.0352 184.822 53.0352C183.92 53.0352 182.578 53.0293 180.797 53.0176C179.015 53.0059 177.679 53 176.789 53C176.402 53 176.209 52.8301 176.209 52.4902C176.209 51.1777 176.279 49.209 176.42 46.584C176.572 43.9473 176.648 41.9727 176.648 40.6602C176.648 39.3242 176.578 36.834 176.437 33.1895C176.402 32.252 176.338 30.8516 176.244 28.9883L176.226 28.7422C176.203 28.4727 176.349 28.3379 176.666 28.3379C177.533 28.3379 178.834 28.3613 180.568 28.4082C182.314 28.4551 183.621 28.4785 184.488 28.4785C185.344 28.4785 186.633 28.4551 188.355 28.4082C190.078 28.3613 191.367 28.3379 192.222 28.3379C192.832 28.3379 193.183 28.5664 193.277 29.0234C193.336 29.293 193.424 30.1133 193.541 31.4844C193.67 32.8438 193.734 33.6699 193.734 33.9629C193.734 34.209 193.617 34.332 193.383 34.332C193.312 34.332 193.189 34.3262 193.013 34.3145C189.896 34.0566 187.095 33.9277 184.611 33.9277C183.99 33.9277 183.609 34.0742 183.469 34.3672C183.41 34.5078 183.381 34.959 183.381 35.7207C183.381 36.5176 183.498 37.0449 183.732 37.3027C183.931 37.5254 184.312 37.6367 184.875 37.6367C184.992 37.6367 185.22 37.6309 185.56 37.6191C185.9 37.5957 186.181 37.584 186.404 37.584C187.881 37.584 189.375 37.543 190.886 37.4609C191.015 37.4492 191.338 37.4199 191.853 37.373C192.252 37.3262 192.568 37.3027 192.802 37.3027C193.084 37.3027 193.224 37.4375 193.224 37.707C193.224 37.4609 193.119 38.3574 192.908 40.3965C192.814 41.334 192.767 42.2715 192.767 43.209C192.767 43.4434 192.597 43.5605 192.258 43.5605C192.258 43.5605 191.73 43.502 190.676 43.3848C190.008 43.3145 188.484 43.2793 186.105 43.2793H184.242C183.761 43.2793 183.48 43.3965 183.398 43.6309C183.386 43.6895 183.381 44.0527 183.381 44.7207C183.381 45.6113 183.439 46.1855 183.556 46.4434C183.756 46.8887 184.506 47.1523 185.806 47.2344C185.783 47.2344 186.638 47.2344 188.373 47.2344C188.994 47.2344 189.914 47.1816 191.133 47.0762C192.363 46.959 193.283 46.9004 193.892 46.9004C194.15 46.9004 194.279 47.1113 194.279 47.5332Z" fill="black"/>
</svg>
