<svg width="216" height="92" viewBox="0 0 216 92" fill="none" xmlns="http://www.w3.org/2000/svg">
<rect width="216" height="92" rx="41" fill="black"/>
<rect x="6" y="6" width="204" height="69" rx="34.5" fill="#FF9247"/>
<path d="M77.7944 44.9141C77.7944 47.293 76.7925 49.332 74.7886 51.0312C73.0308 52.5312 70.8921 53.4863 68.3726 53.8965C68.2788 53.9082 68.2027 53.9141 68.1441 53.9141C67.8745 53.9141 67.2769 53.0938 66.3511 51.4531C65.4253 49.8008 64.9624 48.793 64.9624 48.4297C64.9624 48.3008 65.0503 48.2188 65.2261 48.1836C66.9253 47.7969 68.0503 47.4688 68.6011 47.1992C69.8198 46.5898 70.4292 45.6875 70.4292 44.4922C70.4292 43.7305 70.0308 42.8809 69.2339 41.9434C67.8511 40.3496 67.1011 39.4648 66.9839 39.2891C66.1753 38.0703 65.771 36.7227 65.771 35.2461C65.771 33.1016 66.7612 31.3203 68.7417 29.9023C70.3589 28.7305 72.3452 27.9688 74.7007 27.6172C74.8296 27.6055 74.9292 27.5996 74.9995 27.5996C75.1753 27.5996 75.3159 27.7402 75.4214 28.0215C75.7261 28.877 76.4351 30.4238 77.5484 32.6621C77.5835 32.7324 77.6011 32.791 77.6011 32.8379C77.6011 33.0371 77.4956 33.1367 77.2847 33.1367C77.1909 33.1367 77.0327 33.1191 76.8101 33.084C76.5874 33.0488 76.4175 33.0312 76.3003 33.0312C75.4566 33.0312 74.7183 33.2246 74.0855 33.6113C73.3237 34.0566 72.9429 34.6777 72.9429 35.4746C72.9429 36.1895 73.3648 37.0684 74.2085 38.1113C75.6968 39.9863 76.4761 40.9707 76.5464 41.0645C77.3784 42.3535 77.7944 43.6367 77.7944 44.9141ZM108.578 52.5605C108.578 52.7715 108.431 52.918 108.139 53C107.787 53.0938 106.697 53.1406 104.869 53.1406C103.193 53.1406 102.115 53.0938 101.635 53C101.236 52.918 100.984 52.6543 100.879 52.209C100.48 50.5215 100.17 49.6191 99.9471 49.502C99.7596 49.4199 98.1893 49.3789 95.2362 49.3789C93.244 49.3789 92.1834 49.4316 92.0545 49.5371C91.8553 49.7246 91.6327 50.3516 91.3866 51.418C91.1639 52.3906 90.8944 52.918 90.578 53C90.1795 53.0938 88.8436 53.1406 86.5702 53.1406C84.7772 53.1406 83.8807 52.9707 83.8807 52.6309C83.8807 52.3262 85.2049 48.582 87.8534 41.3984C90.7244 33.6289 92.283 29.3574 92.5291 28.584C92.6698 28.1387 92.8338 27.916 93.0213 27.916C93.3377 27.916 93.8241 27.9453 94.4803 28.0039C95.1483 28.0625 95.6463 28.0918 95.9744 28.0918C96.2909 28.0918 96.7537 28.0742 97.3631 28.0391C97.9842 27.9922 98.4471 27.9688 98.7518 27.9688C98.9744 27.9688 99.1795 28.1621 99.367 28.5488C99.9412 29.7793 101.617 33.998 104.394 41.2051C107.183 48.459 108.578 52.2441 108.578 52.5605ZM96.1151 36.5469C95.869 37.0625 95.453 38.1816 94.867 39.9043C94.2342 41.7324 93.9178 42.8047 93.9178 43.1211C93.9178 43.332 94.2694 43.4492 94.9725 43.4727C95.3358 43.4961 95.9334 43.5078 96.7655 43.5078C97.5389 43.5078 97.9666 43.4141 98.0487 43.2266C98.0721 43.168 98.0838 43.0859 98.0838 42.9805C98.0838 42.5938 97.8143 41.5273 97.2752 39.7812C96.7479 38.0938 96.3612 37.0156 96.1151 36.5469ZM122.205 40.0098C122.205 41.3926 122.24 43.4727 122.311 46.25C122.381 49.0273 122.416 51.1074 122.416 52.4902C122.416 52.7246 122.363 52.8711 122.258 52.9297C122.235 52.9414 122.082 52.9648 121.801 53C121.039 53.0938 120.02 53.1406 118.742 53.1406C117.031 53.1406 115.942 53.0938 115.473 53C115.133 52.9297 114.963 52.748 114.963 52.4551C114.963 52.6426 115.016 51.6113 115.121 49.3613C115.332 44.6152 115.438 41.498 115.438 40.0098C115.438 38.7559 115.397 36.875 115.315 34.3672C115.233 31.8594 115.192 29.9785 115.192 28.7246C115.192 28.4668 115.326 28.3379 115.596 28.3379C115.959 28.3379 116.504 28.3555 117.231 28.3906C117.969 28.4258 118.52 28.4434 118.883 28.4434C119.246 28.4434 119.779 28.4258 120.483 28.3906C121.197 28.3555 121.736 28.3379 122.1 28.3379C122.44 28.3379 122.61 28.4668 122.61 28.7246C122.61 29.9785 122.539 31.8594 122.399 34.3672C122.27 36.875 122.205 38.7559 122.205 40.0098ZM151.424 52.8242C151.424 52.9062 151.307 52.9648 151.073 53C150.627 53.0703 149.508 53.1055 147.715 53.1055C146.18 53.1055 145.137 53.0703 144.586 53C144.329 52.9648 144.182 52.9355 144.147 52.9121C144.077 52.877 143.995 52.7598 143.901 52.5605C143.725 52.1035 143.467 51.4238 143.127 50.5215C142.67 49.3496 141.956 47.6211 140.983 45.3359C140.772 44.8789 140.286 44.627 139.524 44.5801C139.875 44.6035 139.272 44.6152 137.713 44.6152C137.538 44.6152 137.45 44.9141 137.45 45.5117C137.45 46.3086 137.52 47.498 137.661 49.0801C137.813 50.6621 137.889 51.8516 137.889 52.6484C137.889 52.8477 137.836 52.9648 137.731 53C137.567 53.0117 137.403 53.0234 137.239 53.0352C136.547 53.082 135.469 53.1055 134.004 53.1055C132.329 53.1055 131.321 53.0703 130.981 53C130.641 52.9297 130.471 52.748 130.471 52.4551C130.471 51.166 130.53 49.2207 130.647 46.6191C130.776 44.0176 130.84 42.0664 130.84 40.7656C130.84 35.8086 130.729 31.9414 130.506 29.1641L130.489 28.918C130.477 28.7188 130.659 28.584 131.034 28.5137C131.42 28.4434 133.213 28.373 136.413 28.3027C138.581 28.2559 140.309 28.2324 141.598 28.2324C144.27 28.2324 146.45 28.8359 148.137 30.043C150.047 31.4023 151.002 33.3652 151.002 35.9316C151.002 37.6426 150.756 39.0078 150.264 40.0273C149.772 41.0469 148.864 42.0371 147.54 42.998C147.27 43.1855 147.135 43.3613 147.135 43.5254C147.135 43.5137 147.85 44.9844 149.28 47.9375C150.709 50.8906 151.424 52.5195 151.424 52.8242ZM144.041 37.0566C144.041 35.627 143.573 34.6367 142.635 34.0859C141.909 33.6641 140.772 33.4531 139.225 33.4531C138.112 33.4531 137.52 33.623 137.45 33.9629C137.379 34.3613 137.344 35.5098 137.344 37.4082C137.344 37.6777 137.35 38.0762 137.362 38.6035C137.374 39.1309 137.379 39.5234 137.379 39.7812C137.379 39.8398 137.567 39.8984 137.942 39.957C138.657 40.0625 139.407 40.1152 140.192 40.1152C142.758 40.1152 144.041 39.0957 144.041 37.0566Z" fill="black"/>
</svg>
